<?xml version="1.0" standalone="no"?>
<!DOCTYPE svg PUBLIC "-//W3C//DTD SVG 20010904//EN"
 "http://www.w3.org/TR/2001/REC-SVG-20010904/DTD/svg10.dtd">
<svg version="1.0" xmlns="http://www.w3.org/2000/svg"
 width="296.000000pt" height="294.000000pt" viewBox="0 0 296.000000 294.000000"
 preserveAspectRatio="xMidYMid meet">

<g transform="translate(0.000000,294.000000) scale(0.100000,-0.100000)"
fill="#000000" stroke="none">
<path d="M1345 2934 c-628 -69 -1133 -493 -1290 -1086 -35 -134 -46 -224 -46
-383 1 -386 145 -741 411 -1012 235 -239 537 -390 867 -434 137 -18 393 -6
523 24 432 102 787 375 984 756 377 729 86 1617 -649 1984 -114 57 -250 103
-373 128 -95 19 -343 32 -427 23z m416 -43 c194 -39 411 -131 569 -242 113
-79 285 -257 363 -375 168 -253 241 -495 241 -794 0 -190 -17 -300 -69 -456
-165 -495 -580 -861 -1100 -970 -126 -27 -443 -27 -564 -1 -283 61 -527 189
-728 380 -126 121 -209 234 -291 397 -109 215 -153 403 -153 647 0 340 108
638 329 911 211 262 535 449 872 506 52 9 106 18 120 20 55 10 319 -5 411 -23z"/>
<path d="M1137 2833 c-4 -3 -7 -17 -7 -31 0 -14 -10 -44 -22 -68 -22 -46 -19
-66 7 -44 18 15 19 12 19 -69 1 -65 21 -81 32 -25 4 21 3 39 -2 41 -5 2 -9 26
-9 53 0 34 -4 50 -12 50 -17 0 -17 3 8 44 11 19 18 40 14 46 -7 12 -19 13 -28
3z"/>
<path d="M1216 2814 c-5 -12 -1 -14 17 -9 35 11 44 25 15 25 -14 0 -29 -7 -32
-16z"/>
<path d="M1837 2774 c-17 -26 -37 -53 -42 -61 -11 -15 -45 -8 -45 9 0 5 11 19
25 32 30 28 18 44 -30 38 -36 -4 -47 -26 -25 -48 14 -14 -11 -76 -27 -70 -27
11 -44 -62 -20 -83 11 -8 19 -5 37 14 30 32 42 32 34 1 -8 -35 2 -49 28 -35
18 10 24 7 45 -20 17 -22 33 -31 54 -31 16 0 29 5 29 10 0 6 -6 10 -13 10 -7
0 -26 14 -42 30 l-29 30 22 30 c23 31 28 55 13 65 -5 3 -13 -5 -17 -17 -12
-42 -25 -50 -45 -32 -14 13 -16 21 -8 36 5 10 14 16 19 13 5 -3 19 -1 31 6 12
6 32 12 46 14 31 3 40 12 25 27 -10 10 -17 10 -33 0 -31 -19 -33 -9 -4 18 25
24 34 60 15 60 -6 0 -25 -21 -43 -46z m-87 -109 c-7 -9 -15 -13 -17 -11 -7 7
7 26 19 26 6 0 6 -6 -2 -15z m-53 -37 c-3 -7 -5 -2 -5 12 0 14 2 19 5 13 2 -7
2 -19 0 -25z m88 -28 c-3 -5 -11 -10 -16 -10 -6 0 -7 5 -4 10 3 6 11 10 16 10
6 0 7 -4 4 -10z"/>
<path d="M1220 2765 c-5 -14 -14 -25 -20 -25 -16 0 -11 -28 8 -42 13 -10 18
-26 17 -63 0 -27 -4 -56 -9 -63 -17 -28 10 -34 53 -13 46 24 52 38 19 43 -18
2 -23 9 -21 28 1 14 -5 42 -14 62 -16 37 -12 75 7 63 5 -3 15 -3 21 1 8 4 3
12 -12 20 -33 18 -38 17 -49 -11z"/>
<path d="M1466 2628 c-31 -201 -172 -638 -295 -916 -23 -51 -41 -97 -41 -102
0 -6 136 -10 355 -10 195 0 355 2 355 4 0 2 -14 35 -31 73 -107 236 -215 547
-279 799 -22 88 -40 167 -40 177 0 34 -18 16 -24 -25z m69 -783 c61 -60 -2
-153 -81 -120 -52 22 -62 90 -18 124 35 28 69 26 99 -4z"/>
<path d="M656 2598 c5 -7 20 -30 35 -51 23 -31 26 -43 18 -63 -12 -32 -12 -44
1 -44 6 0 10 7 10 15 0 8 5 15 10 15 6 0 10 -11 10 -25 0 -14 0 -28 1 -32 0
-4 -4 -9 -9 -11 -14 -4 -95 105 -88 117 9 14 -27 31 -44 21 -10 -6 -11 -17 -2
-50 8 -35 8 -41 -4 -36 -23 9 -16 -11 18 -49 23 -27 38 -36 54 -32 22 4 24 0
30 -54 4 -33 11 -59 15 -59 5 0 7 11 5 24 -7 38 4 66 26 66 10 0 18 6 17 13
-1 6 -1 28 0 47 l1 34 45 -49 c30 -35 44 -45 45 -33 0 10 -20 38 -45 64 -25
25 -46 53 -47 62 -1 9 -2 26 -3 37 0 14 -7 20 -24 19 -17 -1 -27 8 -39 33 -9
18 -22 33 -29 33 -9 0 -11 -5 -7 -12z m-22 -114 c4 -10 1 -14 -6 -12 -15 5
-23 28 -10 28 5 0 13 -7 16 -16z m36 -65 c0 -36 -16 -38 -32 -3 -10 20 -9 27
2 34 20 13 30 3 30 -31z"/>
<path d="M640 2430 c0 -5 5 -10 10 -10 6 0 10 5 10 10 0 6 -4 10 -10 10 -5 0
-10 -4 -10 -10z"/>
<path d="M2290 2542 c-19 -16 -20 -19 -7 -30 12 -10 18 -10 31 3 17 18 22 45
7 45 -5 0 -19 -8 -31 -18z"/>
<path d="M1345 2513 c-370 -47 -704 -305 -845 -650 -209 -514 23 -1097 531
-1337 218 -103 487 -127 724 -66 174 46 361 157 488 289 147 154 237 327 278
536 18 93 16 310 -4 400 -39 175 -124 344 -240 478 -150 174 -409 314 -641
346 -93 13 -86 13 -86 2 0 -6 21 -13 48 -16 245 -34 460 -141 626 -311 132
-134 218 -289 267 -480 30 -122 31 -318 1 -451 -90 -394 -404 -702 -802 -785
-528 -111 -1054 206 -1204 726 -82 280 -30 604 135 850 53 78 176 204 256 262
122 88 298 159 453 184 36 5 68 10 73 10 4 0 7 5 7 10 0 10 -9 10 -65 3z"/>
<path d="M2216 2491 c-17 -18 -17 -20 1 -29 14 -8 5 -12 -44 -18 -63 -7 -95
-26 -76 -45 6 -6 34 1 80 20 49 20 75 26 86 19 28 -15 19 -34 -23 -51 -40 -15
-54 -37 -25 -37 8 0 15 -7 15 -16 0 -21 34 -14 38 9 2 10 -3 17 -13 17 -31 0
-4 20 36 26 28 5 39 11 35 20 -6 16 10 28 19 14 12 -19 38 -11 32 10 -4 15 1
22 18 26 26 6 40 30 24 39 -5 4 -21 -3 -35 -14 -20 -15 -39 -20 -84 -18 -56 1
-59 2 -54 24 7 28 -7 30 -30 4z"/>
<path d="M355 2115 c-22 -22 -26 -32 -23 -66 4 -48 -9 -46 -39 7 -18 31 -29
39 -53 41 l-32 3 26 -31 c14 -17 26 -37 26 -46 0 -11 6 -14 22 -10 24 7 68
-26 68 -50 0 -20 67 -50 81 -36 9 9 2 16 -25 27 -33 14 -45 33 -29 49 3 4 11
2 18 -3 6 -5 27 -12 46 -14 19 -3 43 -7 54 -11 11 -3 5 2 -12 11 -34 18 -44
44 -18 44 27 0 16 35 -23 73 -21 20 -43 37 -48 37 -6 0 -23 -11 -39 -25z m65
-25 c17 -16 30 -35 27 -42 -6 -17 -59 -12 -73 6 -8 12 -13 13 -22 4 -19 -19
-15 22 5 44 21 24 25 23 63 -12z"/>
<path d="M2563 2082 c-8 -31 -63 -34 -95 -5 -26 23 -23 -2 3 -28 12 -12 29
-19 40 -16 23 6 24 -2 2 -48 -16 -33 -16 -36 0 -52 16 -16 17 -15 17 21 0 44
13 71 40 86 15 8 24 5 45 -17 25 -28 27 -27 29 12 1 16 8 20 41 20 31 0 40 4
43 19 3 15 0 17 -14 12 -10 -4 -38 -10 -61 -13 -34 -4 -48 -2 -64 13 -19 17
-20 17 -26 -4z"/>
<path d="M2660 1691 c0 -5 15 -22 33 -37 20 -17 27 -29 19 -31 -6 -3 -9 -9 -6
-15 3 -5 -2 -16 -12 -23 -17 -13 -22 -11 -42 13 l-24 27 6 -27 c6 -24 3 -28
-17 -28 -15 0 -28 9 -35 23 l-12 22 3 -25 c2 -21 8 -26 42 -30 35 -4 40 -8 37
-29 -4 -28 21 -24 27 5 5 26 32 44 55 37 15 -4 18 -1 13 11 -10 26 9 18 21 -9
16 -34 15 -36 -5 -28 -16 6 -16 4 1 -15 21 -25 38 -20 34 10 -4 29 26 47 52
30 11 -6 27 -12 36 -12 27 0 9 24 -27 34 l-34 10 33 4 c17 2 32 8 32 14 0 7
-17 8 -52 3 -77 -11 -87 -11 -85 0 1 6 10 9 20 8 11 -2 16 1 11 8 -5 8 6 10
34 7 28 -2 43 1 46 9 7 16 -25 17 -95 2 -51 -11 -53 -11 -72 15 -19 26 -37 34
-37 17z"/>
<path d="M120 1665 c-6 -17 -17 -25 -33 -25 -29 0 -37 -7 -30 -26 3 -8 17 -14
33 -14 37 0 63 -30 54 -64 -6 -24 -4 -26 28 -26 38 0 68 24 68 55 0 16 6 17
65 11 36 -4 72 -9 82 -13 10 -4 14 -2 10 4 -4 6 -35 16 -69 22 -67 13 -134 51
-143 82 -10 29 -53 25 -65 -6z m51 -31 c12 -14 11 -16 -5 -13 -11 2 -21 10
-24 17 -5 17 13 15 29 -4z m34 -55 c4 -6 5 -13 2 -16 -8 -7 -47 7 -47 18 0 13
37 11 45 -2z"/>
<path d="M1200 1523 l-115 -4 -72 -147 c-40 -81 -104 -205 -143 -276 -38 -70
-70 -130 -70 -132 0 -2 117 -3 261 -2 l261 3 80 153 81 154 47 -89 c26 -48 63
-117 81 -153 l34 -65 263 -1 c144 -1 262 1 262 3 0 3 -33 64 -74 136 -41 73
-107 198 -148 280 l-73 148 -129 -3 -129 -3 -64 -123 c-36 -67 -69 -120 -73
-117 -5 3 -34 54 -65 113 -51 97 -79 136 -94 130 -3 -1 -58 -4 -121 -5z"/>
<path d="M2600 1057 c58 -28 57 -27 40 -37 -13 -8 -13 -10 -1 -10 8 0 12 -3 8
-6 -3 -3 -27 1 -53 10 -26 9 -50 14 -52 11 -8 -8 -3 -10 96 -43 91 -30 113
-30 70 2 -23 16 -23 16 10 10 57 -10 34 12 -52 49 -91 40 -141 50 -66 14z"/>
<path d="M376 1061 c-4 -5 -4 -16 -1 -24 5 -11 -9 -15 -64 -21 -97 -9 -102
-11 -89 -47 12 -36 43 -41 34 -5 -6 23 -3 24 75 34 44 5 82 12 85 15 7 6 -17
57 -27 57 -4 0 -10 -4 -13 -9z"/>
<path d="M323 958 c-46 -22 -80 -44 -77 -49 3 -5 18 -2 34 6 16 8 34 15 40 15
21 0 9 -17 -26 -33 -19 -10 -32 -22 -29 -27 4 -6 31 3 67 21 33 17 62 28 65
25 3 -2 -12 -13 -34 -24 -48 -25 -77 -57 -70 -77 8 -20 30 -19 77 5 54 28 51
16 -6 -19 -25 -16 -41 -32 -36 -35 5 -3 18 1 28 9 33 25 39 16 10 -14 -15 -16
-24 -31 -19 -34 10 -6 166 88 171 103 6 16 -11 11 -38 -10 -40 -31 -47 -23
-12 13 30 31 35 60 5 36 -16 -14 -18 2 -1 19 14 14 -6 42 -31 42 -14 0 -14 2
-1 10 28 18 -1 23 -35 7 -43 -20 -45 -21 -45 -4 0 7 16 19 35 26 34 12 48 32
23 30 -7 0 -50 -19 -95 -41z m117 -68 c0 -15 -87 -62 -107 -58 -13 3 -5 12 31
36 50 32 76 40 76 22z"/>
<path d="M2526 982 c-5 -8 120 -93 157 -108 24 -9 21 9 -3 24 -27 16 -18 31
15 24 14 -2 25 0 25 5 0 6 -40 22 -88 36 -100 30 -99 30 -106 19z"/>
<path d="M2480 892 c0 -7 162 -92 175 -92 3 0 10 12 16 27 13 35 -5 55 -25 27
-14 -19 -16 -18 -80 14 -68 33 -86 38 -86 24z"/>
<path d="M1208 795 c-3 -27 0 -35 12 -35 12 0 15 8 12 35 -2 19 -8 35 -12 35
-4 0 -10 -16 -12 -35z"/>
<path d="M1399 821 c7 -5 10 -14 7 -20 -4 -6 -2 -11 5 -11 8 0 7 -5 -2 -17
-12 -14 -12 -16 0 -12 8 3 19 13 25 23 9 13 7 20 -8 32 -11 8 -25 14 -30 14
-6 0 -5 -4 3 -9z"/>
<path d="M1554 815 c-18 -14 -18 -15 0 -8 16 5 18 3 12 -20 -5 -23 -3 -27 15
-27 15 0 19 4 15 16 -3 9 -6 24 -6 35 0 23 -10 24 -36 4z"/>
<path d="M1676 821 c-15 -6 -16 -10 -7 -16 11 -6 11 -9 0 -16 -12 -8 -11 -11
1 -19 8 -5 20 -9 25 -9 6 0 4 3 -3 6 -19 8 -3 23 25 23 18 0 24 -4 19 -15 -6
-17 3 -19 24 -4 12 8 12 12 2 16 -9 3 -10 9 -2 18 8 9 6 14 -6 19 -9 4 -19 4
-22 1 -3 -3 0 -5 7 -5 7 0 9 -4 6 -10 -3 -5 -18 -10 -32 -10 -18 0 -24 4 -19
15 3 8 4 15 3 14 -1 0 -11 -4 -21 -8z"/>
<path d="M1332 808 c2 -6 10 -14 16 -16 7 -2 10 2 6 12 -7 18 -28 22 -22 4z"/>
<path d="M2411 783 l-21 -26 32 -28 c39 -33 33 -37 -16 -9 -19 12 -37 17 -40
12 -7 -12 143 -136 152 -127 4 4 -6 18 -21 31 -33 28 -28 30 14 8 44 -23 48
-9 8 33 l-34 36 39 -26 c44 -29 56 -27 56 8 0 27 -56 80 -106 101 -42 18 -39
18 -63 -13z m92 -33 c40 -25 61 -50 42 -50 -10 0 -105 65 -105 73 0 13 15 7
63 -23z"/>
<path d="M470 779 c-77 -46 -106 -89 -78 -117 9 -9 20 -7 47 9 l36 21 -29 -27
c-30 -27 -29 -49 1 -23 36 30 47 30 19 -1 -19 -20 -26 -35 -20 -41 6 -6 38 13
87 53 43 34 74 63 68 65 -6 2 -27 -9 -48 -25 l-38 -28 33 43 c30 38 32 47 10
43 -5 0 -8 10 -8 24 0 32 -31 33 -80 4z m47 -27 c-5 -45 -16 -56 -37 -37 -20
18 -40 13 -40 -11 0 -8 -7 -14 -15 -14 -21 0 -19 13 8 38 18 17 75 52 84 52 2
0 1 -13 0 -28z"/>
<path d="M1510 790 c-9 -6 -10 -10 -3 -10 6 0 15 5 18 10 8 12 4 12 -15 0z"/>
<path d="M1335 770 c3 -5 8 -10 11 -10 2 0 4 5 4 10 0 6 -5 10 -11 10 -5 0 -7
-4 -4 -10z"/>
<path d="M2336 691 c-8 -12 114 -162 126 -155 5 3 2 14 -7 24 -25 28 -9 43 22
23 21 -14 25 -15 21 -3 -6 21 -155 122 -162 111z"/>
<path d="M548 639 c-43 -29 -78 -56 -78 -60 0 -12 14 -11 27 2 21 21 34 0 17
-27 -35 -52 8 -21 66 49 88 106 82 112 -32 36z"/>
<path d="M1169 670 c-1 -8 -1 -21 0 -27 1 -8 -9 -13 -24 -13 -25 0 -34 14 -15
23 6 3 5 4 -2 3 -7 -1 -14 -10 -16 -19 -3 -13 4 -17 27 -17 25 0 30 -5 34 -27
l4 -28 2 28 c1 22 6 27 26 27 20 0 25 5 24 23 -1 16 -2 18 -6 5 -2 -10 -14
-18 -25 -18 -13 0 -18 5 -15 13 3 8 1 20 -4 28 -7 12 -9 12 -10 -1z"/>
<path d="M1293 665 c-3 -9 -3 -18 -1 -21 3 -3 8 4 11 16 6 23 -1 27 -10 5z"/>
<path d="M1397 659 c4 -13 8 -18 11 -10 2 7 -1 18 -6 23 -8 8 -9 4 -5 -13z"/>
<path d="M1790 663 c14 -3 28 -10 32 -17 5 -7 8 -5 8 7 0 13 -8 17 -32 16 -28
-2 -29 -2 -8 -6z"/>
<path d="M1340 630 c0 -16 4 -30 8 -30 5 0 7 14 4 30 -2 17 -6 30 -8 30 -2 0
-4 -13 -4 -30z"/>
<path d="M587 582 c-68 -68 -84 -111 -19 -50 35 33 35 26 0 -24 -10 -15 -15
-29 -10 -32 11 -7 148 131 139 141 -4 3 -23 -9 -42 -27 -41 -40 -44 -37 -10
10 26 35 31 50 17 50 -4 0 -38 -31 -75 -68z"/>
<path d="M1605 640 c3 -5 8 -10 11 -10 2 0 4 5 4 10 0 6 -5 10 -11 10 -5 0 -7
-4 -4 -10z"/>
<path d="M1788 628 c11 -14 9 -18 -15 -26 -15 -6 -21 -11 -13 -11 8 0 22 4 30
9 10 6 20 4 32 -7 9 -8 21 -13 26 -12 5 2 -9 17 -32 33 -22 16 -35 22 -28 14z"/>
<path d="M1571 615 c-1 -15 -3 -17 -10 -7 -7 11 -9 11 -14 -2 -5 -13 1 -16 26
-16 18 0 27 4 21 8 -6 4 -14 14 -17 22 -4 11 -6 10 -6 -5z"/>
<path d="M1626 605 c7 -17 44 -41 44 -28 0 4 -12 16 -25 26 -20 15 -24 15 -19
2z"/>
<path d="M1725 599 c-4 -6 -5 -12 -2 -15 2 -3 7 2 10 11 7 17 1 20 -8 4z"/>
<path d="M2230 595 c-18 -22 5 -53 57 -78 26 -12 49 -28 51 -36 3 -10 0 -12
-12 -8 -10 4 -16 1 -16 -8 0 -18 39 -30 52 -17 6 6 8 22 4 37 -5 20 -20 32
-61 51 -53 23 -76 48 -35 37 15 -4 19 -2 14 10 -8 21 -41 28 -54 12z"/>
<path d="M1290 590 c0 -5 5 -10 11 -10 5 0 7 5 4 10 -3 6 -8 10 -11 10 -2 0
-4 -4 -4 -10z"/>
<path d="M1348 583 c12 -2 30 -2 40 0 9 3 -1 5 -23 4 -22 0 -30 -2 -17 -4z"/>
<path d="M712 498 c-47 -65 -58 -110 -30 -116 9 -2 28 9 41 25 73 84 78 87 39
28 -54 -83 -55 -85 -42 -85 6 0 19 13 28 30 24 42 34 38 16 -6 -29 -68 1 -54
54 26 28 44 52 82 52 85 0 17 -21 0 -39 -31 -29 -49 -38 -37 -12 15 21 40 21
40 2 51 -11 5 -22 10 -24 10 -2 0 -26 -28 -52 -62 -27 -35 -50 -57 -53 -50 -2
6 10 29 26 50 51 66 66 92 51 91 -8 0 -33 -27 -57 -61z"/>
<path d="M2177 553 c-15 -14 -5 -42 33 -96 40 -56 74 -77 92 -59 11 11 1 52
-13 52 -5 0 -9 -7 -9 -15 0 -27 -18 -16 -50 29 -29 43 -38 67 -22 65 19 -3 23
2 12 16 -13 16 -32 19 -43 8z"/>
<path d="M2110 510 c-13 -9 -12 -13 6 -28 29 -23 84 -107 84 -126 0 -18 8 -20
30 -6 12 8 11 12 -6 32 -29 31 -81 111 -82 123 -1 14 -15 16 -32 5z"/>
<path d="M2078 463 l5 -28 -22 20 c-15 13 -25 16 -29 8 -4 -6 -16 -12 -27 -14
-13 -3 -22 -15 -25 -34 -6 -28 -6 -29 -14 -7 -4 12 -12 20 -17 17 -5 -4 0 -24
11 -46 25 -48 13 -51 -18 -4 -22 35 -49 49 -38 20 5 -13 2 -14 -15 -5 -27 15
-52 -5 -43 -34 6 -21 6 -20 -18 2 -22 20 -26 21 -38 7 -16 -19 -7 -94 18 -144
21 -45 55 -50 60 -8 2 15 -1 27 -7 27 -6 0 -11 -7 -11 -16 0 -13 -3 -14 -14
-5 -14 12 -42 108 -34 116 15 15 47 -14 73 -68 31 -64 41 -73 64 -58 12 8 13
18 4 58 -10 43 -10 46 3 28 8 -11 17 -30 21 -42 3 -13 9 -23 14 -23 13 0 11
17 -6 53 l-16 32 21 -24 c11 -13 25 -31 30 -40 14 -25 25 -3 13 27 -6 15 -14
36 -17 47 -7 19 -6 19 6 1 41 -60 55 -71 72 -57 12 10 15 23 11 45 l-6 31 16
-27 c9 -16 20 -28 25 -28 14 0 13 7 -14 53 -21 36 -22 44 -10 55 11 10 17 6
34 -27 18 -37 37 -57 45 -50 5 6 -90 162 -102 166 -6 2 -8 -7 -5 -24z m-31
-89 c24 -41 30 -74 13 -74 -10 0 -42 58 -55 99 -11 37 16 21 42 -25z m-143
-46 c24 -59 28 -88 12 -88 -13 0 -46 76 -46 107 0 25 21 13 34 -19z"/>
<path d="M884 463 c-10 -33 -56 -118 -72 -130 -8 -7 -12 -19 -9 -28 8 -20 37
-20 37 0 0 22 34 87 65 123 26 31 26 31 5 42 -17 9 -21 8 -26 -7z"/>
<path d="M931 428 c-40 -111 -54 -158 -49 -163 11 -12 26 3 58 61 18 30 34 53
37 50 3 -3 -7 -35 -21 -72 -15 -36 -26 -68 -24 -69 2 -2 15 -6 29 -10 32 -8
50 20 20 30 -25 8 -16 45 10 45 19 0 27 26 9 32 -13 4 -1 48 14 48 6 0 17 -4
25 -9 11 -7 9 -22 -11 -85 -19 -58 -22 -76 -12 -76 8 0 14 7 14 15 0 8 5 15
10 15 6 0 10 -11 10 -25 0 -14 5 -25 10 -25 6 0 10 18 10 40 0 27 7 47 21 61
14 14 19 30 17 56 -3 33 -7 37 -62 59 -33 13 -61 24 -62 24 -1 0 -12 -16 -24
-36 -27 -43 -36 -38 -16 10 9 21 11 38 5 41 -5 4 -13 -4 -18 -17z m156 -102
c-4 -9 -11 -16 -18 -16 -6 0 -8 7 -5 16 3 9 6 21 6 27 0 8 3 8 11 0 7 -7 9
-19 6 -27z"/>
<path d="M1140 355 c-14 -17 -15 -42 -5 -102 5 -30 4 -43 -4 -43 -6 0 -11 7
-11 15 0 18 -17 20 -23 3 -6 -20 3 -46 19 -52 35 -13 57 59 35 117 -12 31 2
57 17 31 10 -18 11 -18 17 -1 7 17 -9 47 -25 47 -4 0 -13 -7 -20 -15z"/>
<path d="M1723 353 c-28 -5 -28 -13 -2 -117 21 -82 21 -84 47 -77 33 9 37 37
5 33 -19 -3 -23 2 -23 22 0 14 5 26 10 26 18 0 10 22 -10 27 -24 6 -28 48 -5
57 15 5 22 37 8 35 -5 -1 -18 -4 -30 -6z"/>
<path d="M1217 344 c-3 -3 -3 -12 0 -20 7 -18 -15 -113 -33 -141 -8 -13 -10
-23 -5 -23 5 0 16 -3 25 -6 11 -4 15 1 14 23 0 37 20 124 33 140 18 21 -14 47
-34 27z"/>
<path d="M1270 326 c0 -8 5 -16 12 -18 8 -3 8 -23 -1 -83 -10 -71 -9 -97 4
-83 3 2 10 39 17 81 9 61 15 77 29 77 13 0 18 -13 23 -59 4 -33 4 -71 0 -85
-4 -16 -2 -26 5 -26 6 0 11 9 11 20 0 10 11 53 24 95 24 74 20 100 -7 49 l-14
-27 -6 30 c-4 20 -14 32 -29 37 -39 10 -68 7 -68 -8z"/>
<path d="M1561 321 c-7 -5 -10 -15 -7 -22 4 -8 1 -6 -8 4 -8 10 -23 17 -33 15
-15 -3 -18 -15 -21 -74 -3 -77 9 -124 32 -124 19 0 26 12 32 57 6 47 14 56 14
15 0 -16 3 -37 6 -46 11 -29 20 -16 16 24 -3 25 0 40 7 40 6 0 11 9 11 20 0
11 -6 19 -12 17 -7 -1 -14 8 -16 21 -3 17 2 25 18 29 11 3 19 11 17 17 -5 14
-38 19 -56 7z m-29 -49 c9 -32 4 -107 -7 -110 -12 -3 -27 85 -19 111 7 22 20
22 26 -1z"/>
</g>
</svg>
